<?xml version="1.0" encoding="us-ascii" standalone="no"?><svg xmlns="http://www.w3.org/2000/svg" xmlns:xlink="http://www.w3.org/1999/xlink" contentStyleType="text/css" height="228px" preserveAspectRatio="none" style="width:373px;height:228px;background:#FFFFFF;" version="1.1" viewBox="0 0 373 228" width="373px" zoomAndPan="magnify"><defs/><g><ellipse cx="222.5" cy="20" fill="#222222" rx="10" ry="10" style="stroke:#222222;stroke-width:1.0;"/><polygon fill="#F1F1F1" points="178,50,267,50,279,62,267,74,178,74,166,62,178,50" style="stroke:#181818;stroke-width:0.5;"/><text fill="#000000" font-family="sans-serif" font-size="11" lengthAdjust="spacing" textLength="89" x="178" y="65.8081">multiprocessor?</text><text fill="#000000" font-family="sans-serif" font-size="11" lengthAdjust="spacing" textLength="21" x="145" y="59.4058">yes</text><text fill="#000000" font-family="sans-serif" font-size="11" lengthAdjust="spacing" textLength="56" x="279" y="59.4058">monoproc</text><rect fill="#555555" height="6" rx="2.5" ry="2.5" style="stroke:#555555;stroke-width:1.0;" width="238.5" x="11" y="84"/><rect fill="#F1F1F1" height="33.9688" rx="12.5" ry="12.5" style="stroke:#181818;stroke-width:0.5;" width="92" x="23" y="110"/><text fill="#000000" font-family="sans-serif" font-size="12" lengthAdjust="spacing" textLength="72" x="33" y="131.1387">Treatment 1</text><rect fill="#F1F1F1" height="33.9688" rx="12.5" ry="12.5" style="stroke:#181818;stroke-width:0.5;" width="93" x="142.5" y="110"/><text fill="#000000" font-family="sans-serif" font-size="12" lengthAdjust="spacing" textLength="73" x="152.5" y="131.1387">Treatment 2</text><rect fill="#555555" height="6" rx="2.5" ry="2.5" style="stroke:#555555;stroke-width:1.0;" width="238.5" x="11" y="163.9688"/><rect fill="#F1F1F1" height="33.9688" rx="12.5" ry="12.5" style="stroke:#181818;stroke-width:0.5;" width="92" x="270" y="84"/><text fill="#000000" font-family="sans-serif" font-size="12" lengthAdjust="spacing" textLength="72" x="280" y="105.1387">Treatment 1</text><rect fill="#F1F1F1" height="33.9688" rx="12.5" ry="12.5" style="stroke:#181818;stroke-width:0.5;" width="93" x="269.5" y="152.9688"/><text fill="#000000" font-family="sans-serif" font-size="12" lengthAdjust="spacing" textLength="73" x="279.5" y="174.1074">Treatment 2</text><polygon fill="#F1F1F1" points="222.5,192.9375,234.5,204.9375,222.5,216.9375,210.5,204.9375,222.5,192.9375" style="stroke:#181818;stroke-width:0.5;"/><line style="stroke:#181818;stroke-width:1.0;" x1="69" x2="69" y1="90" y2="110"/><polygon fill="#181818" points="65,100,69,110,73,100,69,104" style="stroke:#181818;stroke-width:1.0;"/><line style="stroke:#181818;stroke-width:1.0;" x1="189" x2="189" y1="90" y2="110"/><polygon fill="#181818" points="185,100,189,110,193,100,189,104" style="stroke:#181818;stroke-width:1.0;"/><line style="stroke:#181818;stroke-width:1.0;" x1="69" x2="69" y1="143.9688" y2="163.9688"/><polygon fill="#181818" points="65,153.9688,69,163.9688,73,153.9688,69,157.9688" style="stroke:#181818;stroke-width:1.0;"/><line style="stroke:#181818;stroke-width:1.0;" x1="189" x2="189" y1="143.9688" y2="163.9688"/><polygon fill="#181818" points="185,153.9688,189,163.9688,193,153.9688,189,157.9688" style="stroke:#181818;stroke-width:1.0;"/><line style="stroke:#181818;stroke-width:1.0;" x1="316" x2="316" y1="117.9688" y2="152.9688"/><polygon fill="#181818" points="312,142.9688,316,152.9688,320,142.9688,316,146.9688" style="stroke:#181818;stroke-width:1.0;"/><line style="stroke:#181818;stroke-width:1.0;" x1="166" x2="129" y1="62" y2="62"/><line style="stroke:#181818;stroke-width:1.0;" x1="129" x2="129" y1="62" y2="84"/><polygon fill="#181818" points="125,74,129,84,133,74,129,78" style="stroke:#181818;stroke-width:1.0;"/><line style="stroke:#181818;stroke-width:1.0;" x1="279" x2="316" y1="62" y2="62"/><line style="stroke:#181818;stroke-width:1.0;" x1="316" x2="316" y1="62" y2="84"/><polygon fill="#181818" points="312,74,316,84,320,74,316,78" style="stroke:#181818;stroke-width:1.0;"/><line style="stroke:#181818;stroke-width:1.0;" x1="129" x2="129" y1="169.9688" y2="204.9375"/><line style="stroke:#181818;stroke-width:1.0;" x1="129" x2="210.5" y1="204.9375" y2="204.9375"/><polygon fill="#181818" points="200.5,200.9375,210.5,204.9375,200.5,208.9375,204.5,204.9375" style="stroke:#181818;stroke-width:1.0;"/><line style="stroke:#181818;stroke-width:1.0;" x1="316" x2="316" y1="186.9375" y2="204.9375"/><line style="stroke:#181818;stroke-width:1.0;" x1="316" x2="234.5" y1="204.9375" y2="204.9375"/><polygon fill="#181818" points="244.5,200.9375,234.5,204.9375,244.5,208.9375,240.5,204.9375" style="stroke:#181818;stroke-width:1.0;"/><line style="stroke:#181818;stroke-width:1.0;" x1="222.5" x2="222.5" y1="30" y2="50"/><polygon fill="#181818" points="218.5,40,222.5,50,226.5,40,222.5,44" style="stroke:#181818;stroke-width:1.0;"/><!--SRC=[NOqn4eCm30Hxl-9AAA4C1P_W0nwG4myWCP8eyllO0qsehjZPFVEe7a9EQFPpytoep6GcEhRm3p6QBraRW2IwbW5UarBqdTZH3JT0VCVCJznNJBnSBcr6vKHOwaTDFal_QX5p-W40]--></g></svg>