<?xml version="1.0" encoding="us-ascii" standalone="no"?><svg xmlns="http://www.w3.org/2000/svg" xmlns:xlink="http://www.w3.org/1999/xlink" contentStyleType="text/css" height="118px" preserveAspectRatio="none" style="width:379px;height:118px;background:#FFFFFF;" version="1.1" viewBox="0 0 379 118" width="379px" zoomAndPan="magnify"><defs/><g><!--class User--><g id="elem_User"><rect codeLine="3" fill="#F1F1F1" height="80.5938" id="User" rx="2.5" ry="2.5" style="stroke:#181818;stroke-width:0.5;" width="147" x="7" y="31"/><ellipse cx="60.75" cy="47" fill="#ADD1B2" rx="11" ry="11" style="stroke:#181818;stroke-width:1.0;"/><path d="M63.0938,42.6719 C62.1563,42.2344 61.5625,42.0938 60.6875,42.0938 C58.0625,42.0938 56.0625,44.1719 56.0625,46.8906 L56.0625,48.0156 C56.0625,50.5938 58.1719,52.4844 61.0625,52.4844 C62.2813,52.4844 63.4375,52.1875 64.1875,51.6406 C64.7656,51.2344 65.0938,50.7813 65.0938,50.3906 C65.0938,49.9375 64.7031,49.5469 64.2344,49.5469 C64.0156,49.5469 63.8125,49.625 63.625,49.8125 C63.1719,50.2969 63.1719,50.2969 62.9844,50.3906 C62.5625,50.6563 61.875,50.7813 61.1094,50.7813 C59.0625,50.7813 57.7656,49.6875 57.7656,47.9844 L57.7656,46.8906 C57.7656,45.1094 59.0156,43.7969 60.75,43.7969 C61.3281,43.7969 61.9375,43.9531 62.4063,44.2031 C62.8906,44.4844 63.0625,44.7031 63.1563,45.1094 C63.2188,45.5156 63.25,45.6406 63.3906,45.7656 C63.5313,45.9063 63.7656,46.0156 63.9844,46.0156 C64.25,46.0156 64.5156,45.875 64.6875,45.6563 C64.7969,45.5 64.8281,45.3125 64.8281,44.8906 L64.8281,43.4688 C64.8281,43.0313 64.8125,42.9063 64.7188,42.75 C64.5625,42.4844 64.2813,42.3438 63.9844,42.3438 C63.6875,42.3438 63.4844,42.4375 63.2656,42.75 L63.0938,42.6719 Z " fill="#000000"/><text fill="#000000" font-family="sans-serif" font-size="14" lengthAdjust="spacing" textLength="31" x="81.25" y="51.8467">User</text><line style="stroke:#181818;stroke-width:0.5;" x1="8" x2="153" y1="63" y2="63"/><text fill="#000000" font-family="sans-serif" font-size="14" lengthAdjust="spacing" textLength="88" x="13" y="79.9951">id : INTEGER</text><line style="stroke:#181818;stroke-width:1.0;stroke-dasharray:1.0,2.0;" x1="8" x2="153" y1="87.2969" y2="87.2969"/><text fill="#000000" font-family="sans-serif" font-size="14" lengthAdjust="spacing" textLength="135" x="13" y="104.292">other_id : INTEGER</text></g><!--class Email--><g id="elem_Email"><rect codeLine="9" fill="#F1F1F1" height="96.8906" id="Email" rx="2.5" ry="2.5" style="stroke:#181818;stroke-width:0.5;" width="142" x="230" y="7"/><ellipse cx="277.25" cy="23" fill="#ADD1B2" rx="11" ry="11" style="stroke:#181818;stroke-width:1.0;"/><path d="M279.5938,18.6719 C278.6563,18.2344 278.0625,18.0938 277.1875,18.0938 C274.5625,18.0938 272.5625,20.1719 272.5625,22.8906 L272.5625,24.0156 C272.5625,26.5938 274.6719,28.4844 277.5625,28.4844 C278.7813,28.4844 279.9375,28.1875 280.6875,27.6406 C281.2656,27.2344 281.5938,26.7813 281.5938,26.3906 C281.5938,25.9375 281.2031,25.5469 280.7344,25.5469 C280.5156,25.5469 280.3125,25.625 280.125,25.8125 C279.6719,26.2969 279.6719,26.2969 279.4844,26.3906 C279.0625,26.6563 278.375,26.7813 277.6094,26.7813 C275.5625,26.7813 274.2656,25.6875 274.2656,23.9844 L274.2656,22.8906 C274.2656,21.1094 275.5156,19.7969 277.25,19.7969 C277.8281,19.7969 278.4375,19.9531 278.9063,20.2031 C279.3906,20.4844 279.5625,20.7031 279.6563,21.1094 C279.7188,21.5156 279.75,21.6406 279.8906,21.7656 C280.0313,21.9063 280.2656,22.0156 280.4844,22.0156 C280.75,22.0156 281.0156,21.875 281.1875,21.6563 C281.2969,21.5 281.3281,21.3125 281.3281,20.8906 L281.3281,19.4688 C281.3281,19.0313 281.3125,18.9063 281.2188,18.75 C281.0625,18.4844 280.7813,18.3438 280.4844,18.3438 C280.1875,18.3438 279.9844,18.4375 279.7656,18.75 L279.5938,18.6719 Z " fill="#000000"/><text fill="#000000" font-family="sans-serif" font-size="14" lengthAdjust="spacing" textLength="39" x="297.75" y="27.8467">Email</text><line style="stroke:#181818;stroke-width:0.5;" x1="231" x2="371" y1="39" y2="39"/><text fill="#000000" font-family="sans-serif" font-size="14" lengthAdjust="spacing" textLength="88" x="236" y="55.9951">id : INTEGER</text><line style="stroke:#181818;stroke-width:1.0;stroke-dasharray:1.0,2.0;" x1="231" x2="371" y1="63.2969" y2="63.2969"/><text fill="#000000" font-family="sans-serif" font-size="14" lengthAdjust="spacing" textLength="125" x="236" y="80.292">user_id : INTEGER</text><text fill="#000000" font-family="sans-serif" font-size="14" lengthAdjust="spacing" textLength="130" x="236" y="96.5889">address : INTEGER</text></g><!--reverse link User to Email--><g id="link_User_Email"><path codeLine="16" d="M167.5,75 C200.167,75 196.333,75 229,75 " fill="none" id="User-backto-Email" style="stroke:#181818;stroke-width:1.0;"/><polygon fill="#181818" points="155.5,75,161.5,79,167.5,75,161.5,71,155.5,75" style="stroke:#181818;stroke-width:1.0;"/></g><!--SRC=[oqbDAr4eoLSeoapFA558oInAJIx9pC_ZuahEIImkLWWjJYrIgEPIKCXCKR1IyFGBSNLt3G9ozVI0H7v9HcfHF8fCBKoZQsvYPWvEdQN5w1eL519JKefIWJfH30FPRsK5LAcbgminqyeAgXa0]--></g></svg>