<?xml version="1.0" encoding="us-ascii" standalone="no"?><svg xmlns="http://www.w3.org/2000/svg" xmlns:xlink="http://www.w3.org/1999/xlink" contentStyleType="text/css" height="410px" preserveAspectRatio="none" style="width:1005px;height:410px;background:#FFFFFF;" version="1.1" viewBox="0 0 1005 410" width="1005px" zoomAndPan="magnify"><defs/><g><path d="M10,15 L10,40.1328 L223,40.1328 L223,25 L213,15 L10,15 " fill="#FEFFDD" style="stroke:#181818;stroke-width:0.5;"/><path d="M213,15 L213,25 L223,25 L213,15 " fill="#FEFFDD" style="stroke:#181818;stroke-width:0.5;"/><text fill="#000000" font-family="sans-serif" font-size="13" lengthAdjust="spacing" textLength="184" x="20" y="32.0669">Example from &#167;8.1 ISO-EBNF</text><text fill="#000000" font-family="sans-serif" font-size="14" font-weight="bold" lengthAdjust="spacing" textLength="44" x="10" y="68.1279">h-tab</text><rect fill="none" height="26.2969" style="stroke:#181818;stroke-width:1.0;stroke-dasharray:5.0,5.0;" width="309" x="40" y="81.4297"/><text fill="#000000" font-family="sans-serif" font-size="14" lengthAdjust="spacing" textLength="291" x="49" y="99.4248">IS0 6429 character Horizontal Tabulation</text><ellipse cx="14" cy="94.5781" fill="none" rx="4" ry="4" style="stroke:#181818;stroke-width:2.0;"/><ellipse cx="379" cy="94.5781" fill="#181818" rx="4" ry="4" style="stroke:#181818;stroke-width:1.0;"/><line style="stroke:#181818;stroke-width:1.5;" x1="18" x2="40" y1="94.5781" y2="94.5781"/><line style="stroke:#181818;stroke-width:1.5;" x1="349" x2="375" y1="94.5781" y2="94.5781"/><path d="M360,94.5781 L360,91.5781 L366,94.5781 L360,97.5781 L360,94.5781 " fill="#181818" style="stroke:#181818;stroke-width:1.5;"/><text fill="#000000" font-family="sans-serif" font-size="14" font-weight="bold" lengthAdjust="spacing" textLength="67" x="10" y="135.7217">new-line</text><line style="stroke:#181818;stroke-width:1.5;" x1="40" x2="40" y1="190.1719" y2="190.1719"/><path d="M48,182.1719 C48,188.1719 46,190.1719 40,190.1719 " fill="none" style="stroke:#181818;stroke-width:1.5;"/><line style="stroke:#181818;stroke-width:1.5;" x1="48" x2="48" y1="162.0234" y2="182.1719"/><path d="M48,162.0234 C48,156.0234 50,154.0234 56,154.0234 " fill="none" style="stroke:#181818;stroke-width:1.5;"/><line style="stroke:#181818;stroke-width:1.5;" x1="56" x2="352" y1="154.0234" y2="154.0234"/><path d="M172.4,154.0234 L172.4,151.0234 L178.4,154.0234 L172.4,157.0234 L172.4,154.0234 " fill="#181818" style="stroke:#181818;stroke-width:1.5;"/><path d="M360,182.1719 C360,188.1719 362,190.1719 368,190.1719 " fill="none" style="stroke:#181818;stroke-width:1.5;"/><line style="stroke:#181818;stroke-width:1.5;" x1="360" x2="360" y1="162.0234" y2="182.1719"/><path d="M352,154.0234 C358,154.0234 360,156.0234 360,162.0234 " fill="none" style="stroke:#181818;stroke-width:1.5;"/><line style="stroke:#181818;stroke-width:1.5;" x1="40" x2="55" y1="190.1719" y2="190.1719"/><line style="stroke:#181818;stroke-width:1.5;" x1="353" x2="368" y1="190.1719" y2="190.1719"/><path d="M63,182.1719 C63,188.1719 65,190.1719 71,190.1719 " fill="none" style="stroke:#181818;stroke-width:1.5;"/><line style="stroke:#181818;stroke-width:1.5;" x1="63" x2="63" y1="178.0234" y2="182.1719"/><path d="M63,178.0234 C63,172.0234 65,170.0234 71,170.0234 " fill="none" style="stroke:#181818;stroke-width:1.5;"/><line style="stroke:#181818;stroke-width:1.5;" x1="70" x2="338" y1="170.0234" y2="170.0234"/><path d="M228.8,170.0234 L228.8,167.0234 L222.8,170.0234 L228.8,173.0234 L228.8,170.0234 " fill="#181818" style="stroke:#181818;stroke-width:1.5;"/><path d="M345,182.1719 C345,188.1719 343,190.1719 337,190.1719 " fill="none" style="stroke:#181818;stroke-width:1.5;"/><line style="stroke:#181818;stroke-width:1.5;" x1="345" x2="345" y1="178.0234" y2="182.1719"/><path d="M337,170.0234 C343,170.0234 345,172.0234 345,178.0234 " fill="none" style="stroke:#181818;stroke-width:1.5;"/><line style="stroke:#181818;stroke-width:1.5;" x1="55" x2="70" y1="190.1719" y2="190.1719"/><line style="stroke:#181818;stroke-width:1.5;" x1="338" x2="353" y1="190.1719" y2="190.1719"/><rect fill="none" height="26.2969" style="stroke:#181818;stroke-width:1.0;stroke-dasharray:5.0,5.0;" width="268" x="70" y="177.0234"/><text fill="#000000" font-family="sans-serif" font-size="14" lengthAdjust="spacing" textLength="250" x="79" y="195.0186">IS0 6429 character Carriage Return</text><line style="stroke:#181818;stroke-width:1.5;" x1="368" x2="388" y1="190.1719" y2="190.1719"/><rect fill="none" height="26.2969" style="stroke:#181818;stroke-width:1.0;stroke-dasharray:5.0,5.0;" width="224" x="388" y="177.0234"/><text fill="#000000" font-family="sans-serif" font-size="14" lengthAdjust="spacing" textLength="206" x="397" y="195.0186">IS0 6429 character Line Feed</text><line style="stroke:#181818;stroke-width:1.5;" x1="612" x2="632" y1="190.1719" y2="190.1719"/><path d="M640,182.1719 C640,188.1719 638,190.1719 632,190.1719 " fill="none" style="stroke:#181818;stroke-width:1.5;"/><line style="stroke:#181818;stroke-width:1.5;" x1="640" x2="640" y1="162.0234" y2="182.1719"/><path d="M640,162.0234 C640,156.0234 642,154.0234 648,154.0234 " fill="none" style="stroke:#181818;stroke-width:1.5;"/><line style="stroke:#181818;stroke-width:1.5;" x1="648" x2="944" y1="154.0234" y2="154.0234"/><path d="M764.4,154.0234 L764.4,151.0234 L770.4,154.0234 L764.4,157.0234 L764.4,154.0234 " fill="#181818" style="stroke:#181818;stroke-width:1.5;"/><path d="M952,182.1719 C952,188.1719 954,190.1719 960,190.1719 " fill="none" style="stroke:#181818;stroke-width:1.5;"/><line style="stroke:#181818;stroke-width:1.5;" x1="952" x2="952" y1="162.0234" y2="182.1719"/><path d="M944,154.0234 C950,154.0234 952,156.0234 952,162.0234 " fill="none" style="stroke:#181818;stroke-width:1.5;"/><line style="stroke:#181818;stroke-width:1.5;" x1="632" x2="647" y1="190.1719" y2="190.1719"/><line style="stroke:#181818;stroke-width:1.5;" x1="945" x2="960" y1="190.1719" y2="190.1719"/><path d="M655,182.1719 C655,188.1719 657,190.1719 663,190.1719 " fill="none" style="stroke:#181818;stroke-width:1.5;"/><line style="stroke:#181818;stroke-width:1.5;" x1="655" x2="655" y1="178.0234" y2="182.1719"/><path d="M655,178.0234 C655,172.0234 657,170.0234 663,170.0234 " fill="none" style="stroke:#181818;stroke-width:1.5;"/><line style="stroke:#181818;stroke-width:1.5;" x1="662" x2="930" y1="170.0234" y2="170.0234"/><path d="M820.8,170.0234 L820.8,167.0234 L814.8,170.0234 L820.8,173.0234 L820.8,170.0234 " fill="#181818" style="stroke:#181818;stroke-width:1.5;"/><path d="M937,182.1719 C937,188.1719 935,190.1719 929,190.1719 " fill="none" style="stroke:#181818;stroke-width:1.5;"/><line style="stroke:#181818;stroke-width:1.5;" x1="937" x2="937" y1="178.0234" y2="182.1719"/><path d="M929,170.0234 C935,170.0234 937,172.0234 937,178.0234 " fill="none" style="stroke:#181818;stroke-width:1.5;"/><line style="stroke:#181818;stroke-width:1.5;" x1="647" x2="662" y1="190.1719" y2="190.1719"/><line style="stroke:#181818;stroke-width:1.5;" x1="930" x2="945" y1="190.1719" y2="190.1719"/><rect fill="none" height="26.2969" style="stroke:#181818;stroke-width:1.0;stroke-dasharray:5.0,5.0;" width="268" x="662" y="177.0234"/><text fill="#000000" font-family="sans-serif" font-size="14" lengthAdjust="spacing" textLength="250" x="671" y="195.0186">IS0 6429 character Carriage Return</text><ellipse cx="14" cy="190.1719" fill="none" rx="4" ry="4" style="stroke:#181818;stroke-width:2.0;"/><ellipse cx="990" cy="190.1719" fill="#181818" rx="4" ry="4" style="stroke:#181818;stroke-width:1.0;"/><line style="stroke:#181818;stroke-width:1.5;" x1="18" x2="40" y1="190.1719" y2="190.1719"/><line style="stroke:#181818;stroke-width:1.5;" x1="960" x2="986" y1="190.1719" y2="190.1719"/><path d="M971,190.1719 L971,187.1719 L977,190.1719 L971,193.1719 L971,190.1719 " fill="#181818" style="stroke:#181818;stroke-width:1.5;"/><path d="M10,223.3203 L10,248.4531 L203,248.4531 L203,233.3203 L193,223.3203 L10,223.3203 " fill="#FEFFDD" style="stroke:#181818;stroke-width:0.5;"/><path d="M193,223.3203 L193,233.3203 L203,233.3203 L193,223.3203 " fill="#FEFFDD" style="stroke:#181818;stroke-width:0.5;"/><text fill="#000000" font-family="sans-serif" font-size="13" lengthAdjust="spacing" textLength="164" x="20" y="240.3872">Other possible examples:</text><text fill="#000000" font-family="sans-serif" font-size="14" font-weight="bold" lengthAdjust="spacing" textLength="44" x="10" y="276.4482">h-tab</text><rect fill="none" height="26.2969" style="stroke:#181818;stroke-width:1.0;stroke-dasharray:5.0,5.0;" width="127" x="40" y="289.75"/><text fill="#000000" font-family="sans-serif" font-size="14" lengthAdjust="spacing" textLength="117" x="45" y="307.7451">Unicode U+0009</text><ellipse cx="14" cy="302.8984" fill="none" rx="4" ry="4" style="stroke:#181818;stroke-width:2.0;"/><ellipse cx="197" cy="302.8984" fill="#181818" rx="4" ry="4" style="stroke:#181818;stroke-width:1.0;"/><line style="stroke:#181818;stroke-width:1.5;" x1="18" x2="40" y1="302.8984" y2="302.8984"/><line style="stroke:#181818;stroke-width:1.5;" x1="167" x2="193" y1="302.8984" y2="302.8984"/><path d="M178,302.8984 L178,299.8984 L184,302.8984 L178,305.8984 L178,302.8984 " fill="#181818" style="stroke:#181818;stroke-width:1.5;"/><text fill="#000000" font-family="sans-serif" font-size="14" font-weight="bold" lengthAdjust="spacing" textLength="114" x="10" y="344.042">empty-special</text><rect fill="none" height="26.2969" style="stroke:#181818;stroke-width:1.0;stroke-dasharray:5.0,5.0;" width="14" x="40" y="357.3438"/><text fill="#000000" font-family="sans-serif" font-size="14" lengthAdjust="spacing" textLength="4" x="45" y="375.3389">&#160;</text><ellipse cx="14" cy="370.4922" fill="none" rx="4" ry="4" style="stroke:#181818;stroke-width:2.0;"/><ellipse cx="84" cy="370.4922" fill="#181818" rx="4" ry="4" style="stroke:#181818;stroke-width:1.0;"/><line style="stroke:#181818;stroke-width:1.5;" x1="18" x2="40" y1="370.4922" y2="370.4922"/><line style="stroke:#181818;stroke-width:1.5;" x1="54" x2="80" y1="370.4922" y2="370.4922"/><path d="M65,370.4922 L65,367.4922 L71,370.4922 L65,373.4922 L65,370.4922 " fill="#181818" style="stroke:#181818;stroke-width:1.5;"/><!--SRC=[ZP71Ji9048Rl-nHp1BIa52HGOY0WgAG8eS1zMmROfDrjjbCKZS_ZU_XaJY5wuk1nP_v_zlzc1Zb9InZfdQZKOFmcqon1s5cJmlTNfzw0vt3kZ8Sl4wXLXJWu92EuXpwNNMYtl2x41sbbJ6ZXoLZrRZJ915OoAX99ocYMzeJG-EeaIYDRFwwRHz9Q9VS8IwJ2bhRFMt5L6PHp9eXRwD-A_q_Z50mufmEtCvFdAc9ElF3cVadt1xVMAZPRXFMDwxhTVazWcj79oJEC5SEnWci3rDlpsiGYaPhMim2EQFCIkL7tNAzPRtYLYLKmZmay5nfDlzNrxrgmNesWx5T5vN4HG6uA6oDiLKvMHKMviwgOogE4PQ59fUX3-QgiPbK8nxz56EkZiaQdg4bCDxEBY4z0OMReB6wtdA4Y2D5oBjZCn0FkP94GMvbEwRtFKIPEHmHIxmjUbW-enSZm1_R4lV07]--></g></svg>