<?xml version="1.0" encoding="us-ascii" standalone="no"?><svg xmlns="http://www.w3.org/2000/svg" xmlns:xlink="http://www.w3.org/1999/xlink" contentStyleType="text/css" height="316px" preserveAspectRatio="none" style="width:452px;height:316px;background:#FFFFFF;" version="1.1" viewBox="0 0 452 316" width="452px" zoomAndPan="magnify"><defs/><g><rect fill="none" height="59.2656" style="stroke:#000000;stroke-width:1.5;" width="237.5" x="192" y="82.4297"/><line style="stroke:#181818;stroke-width:0.5;stroke-dasharray:5.0,5.0;" x1="29" x2="29" y1="36.2969" y2="281.2266"/><line style="stroke:#181818;stroke-width:0.5;stroke-dasharray:5.0,5.0;" x1="224" x2="224" y1="36.2969" y2="281.2266"/><line style="stroke:#181818;stroke-width:0.5;stroke-dasharray:5.0,5.0;" x1="424" x2="424" y1="36.2969" y2="281.2266"/><rect fill="#E2E2F0" height="30.2969" rx="2.5" ry="2.5" style="stroke:#181818;stroke-width:0.5;" width="49" x="5" y="5"/><text fill="#000000" font-family="sans-serif" font-size="14" lengthAdjust="spacing" textLength="35" x="12" y="24.9951">Alice</text><rect fill="#E2E2F0" height="30.2969" rx="2.5" ry="2.5" style="stroke:#181818;stroke-width:0.5;" width="49" x="5" y="280.2266"/><text fill="#000000" font-family="sans-serif" font-size="14" lengthAdjust="spacing" textLength="35" x="12" y="300.2217">Alice</text><rect fill="#E2E2F0" height="30.2969" rx="2.5" ry="2.5" style="stroke:#181818;stroke-width:0.5;" width="45" x="202" y="5"/><text fill="#000000" font-family="sans-serif" font-size="14" lengthAdjust="spacing" textLength="31" x="209" y="24.9951">John</text><rect fill="#E2E2F0" height="30.2969" rx="2.5" ry="2.5" style="stroke:#181818;stroke-width:0.5;" width="45" x="202" y="280.2266"/><text fill="#000000" font-family="sans-serif" font-size="14" lengthAdjust="spacing" textLength="31" x="209" y="300.2217">John</text><rect fill="#E2E2F0" height="30.2969" rx="2.5" ry="2.5" style="stroke:#181818;stroke-width:0.5;" width="43" x="403" y="5"/><text fill="#000000" font-family="sans-serif" font-size="14" lengthAdjust="spacing" textLength="29" x="410" y="24.9951">Bob</text><rect fill="#E2E2F0" height="30.2969" rx="2.5" ry="2.5" style="stroke:#181818;stroke-width:0.5;" width="43" x="403" y="280.2266"/><text fill="#000000" font-family="sans-serif" font-size="14" lengthAdjust="spacing" textLength="29" x="410" y="300.2217">Bob</text><line style="stroke:#181818;stroke-width:1.0;" x1="222.5" x2="212.5" y1="67.4297" y2="63.4297"/><line style="stroke:#181818;stroke-width:1.0;" x1="222.5" x2="212.5" y1="67.4297" y2="71.4297"/><line style="stroke:#181818;stroke-width:1.0;" x1="29.5" x2="223.5" y1="67.4297" y2="67.4297"/><text fill="#000000" font-family="sans-serif" font-size="13" font-weight="bold" lengthAdjust="spacing" textLength="9" x="36.5" y="62.3638">1</text><text fill="#000000" font-family="sans-serif" font-size="13" lengthAdjust="spacing" textLength="158" x="49.5" y="62.3638">Hello John, how are you?</text><path d="M192,82.4297 L270,82.4297 L270,89.5625 L260,99.5625 L192,99.5625 L192,82.4297 " fill="#EEEEEE" style="stroke:#000000;stroke-width:1.5;"/><rect fill="none" height="59.2656" style="stroke:#000000;stroke-width:1.5;" width="237.5" x="192" y="82.4297"/><text fill="#000000" font-family="sans-serif" font-size="13" font-weight="bold" lengthAdjust="spacing" textLength="33" x="207" y="95.4966">loop</text><text fill="#000000" font-family="sans-serif" font-size="11" font-weight="bold" lengthAdjust="spacing" textLength="91" x="285" y="94.6401">[Healthcheck]</text><line style="stroke:#181818;stroke-width:1.0;" x1="224.5" x2="266.5" y1="120.6953" y2="120.6953"/><line style="stroke:#181818;stroke-width:1.0;" x1="266.5" x2="266.5" y1="120.6953" y2="133.6953"/><line style="stroke:#181818;stroke-width:1.0;" x1="225.5" x2="266.5" y1="133.6953" y2="133.6953"/><line style="stroke:#181818;stroke-width:1.0;" x1="225.5" x2="235.5" y1="133.6953" y2="129.6953"/><line style="stroke:#181818;stroke-width:1.0;" x1="225.5" x2="235.5" y1="133.6953" y2="137.6953"/><text fill="#000000" font-family="sans-serif" font-size="13" font-weight="bold" lengthAdjust="spacing" textLength="9" x="231.5" y="115.6294">2</text><text fill="#000000" font-family="sans-serif" font-size="13" lengthAdjust="spacing" textLength="173" x="244.5" y="115.6294">Fight against hypochondria</text><path d="M229,153.6953 L229,178.6953 L368,178.6953 L368,163.6953 L358,153.6953 L229,153.6953 " fill="#FEFFDD" style="stroke:#181818;stroke-width:0.5;"/><path d="M358,153.6953 L358,163.6953 L368,163.6953 L358,153.6953 " fill="#FEFFDD" style="stroke:#181818;stroke-width:0.5;"/><text fill="#000000" font-family="sans-serif" font-size="13" lengthAdjust="spacing" textLength="118" x="235" y="170.7622">Rational thoughts!</text><line style="stroke:#181818;stroke-width:1.0;" x1="30.5" x2="40.5" y1="204.9609" y2="200.9609"/><line style="stroke:#181818;stroke-width:1.0;" x1="30.5" x2="40.5" y1="204.9609" y2="208.9609"/><line style="stroke:#181818;stroke-width:1.0;stroke-dasharray:2.0,2.0;" x1="29.5" x2="223.5" y1="204.9609" y2="204.9609"/><text fill="#000000" font-family="sans-serif" font-size="13" font-weight="bold" lengthAdjust="spacing" textLength="8" x="46.5" y="199.895">3</text><text fill="#000000" font-family="sans-serif" font-size="13" lengthAdjust="spacing" textLength="41" x="58.5" y="199.895">Great!</text><line style="stroke:#181818;stroke-width:1.0;" x1="422.5" x2="412.5" y1="234.0938" y2="230.0938"/><line style="stroke:#181818;stroke-width:1.0;" x1="422.5" x2="412.5" y1="234.0938" y2="238.0938"/><line style="stroke:#181818;stroke-width:1.0;" x1="224.5" x2="423.5" y1="234.0938" y2="234.0938"/><text fill="#000000" font-family="sans-serif" font-size="13" font-weight="bold" lengthAdjust="spacing" textLength="9" x="231.5" y="229.0278">4</text><text fill="#000000" font-family="sans-serif" font-size="13" lengthAdjust="spacing" textLength="104" x="244.5" y="229.0278">How about you?</text><line style="stroke:#181818;stroke-width:1.0;" x1="225.5" x2="235.5" y1="263.2266" y2="259.2266"/><line style="stroke:#181818;stroke-width:1.0;" x1="225.5" x2="235.5" y1="263.2266" y2="267.2266"/><line style="stroke:#181818;stroke-width:1.0;stroke-dasharray:2.0,2.0;" x1="224.5" x2="423.5" y1="263.2266" y2="263.2266"/><text fill="#000000" font-family="sans-serif" font-size="13" font-weight="bold" lengthAdjust="spacing" textLength="9" x="241.5" y="258.1606">5</text><text fill="#000000" font-family="sans-serif" font-size="13" lengthAdjust="spacing" textLength="67" x="254.5" y="258.1606">Jolly good!</text><!--SRC=[JOun3i8m34LtJk7kz08TWc00r8616xXfQ292VfKwGhqzIP0ANcpPpr-Fao2ars3YZd8TlTEcLQg73HrTZVUWCk_9uaqS3Qr8XufwOCu4Ux7Q6lsiorA5toBERh92FB4BYv1TPsYBC4R7bJTXhFq6CHGhYmTzN-yi3e4zYKNAbwNPRV4vlwfsT8c6vU-Yr0b3LY-w0vByXFE-tRnwUB_I18pD1m00]--></g></svg>