<?xml version="1.0" encoding="us-ascii" standalone="no"?><svg xmlns="http://www.w3.org/2000/svg" xmlns:xlink="http://www.w3.org/1999/xlink" contentStyleType="text/css" height="297px" preserveAspectRatio="none" style="width:885px;height:297px;background:#FFFFFF;" version="1.1" viewBox="0 0 885 297" width="885px" zoomAndPan="magnify"><defs/><g><ellipse cx="439.5" cy="16" fill="#222222" rx="10" ry="10" style="stroke:#222222;stroke-width:1.0;"/><path d="M19.5,86 L859.5,86 A12.5,12.5 0 0 1 872,98.5 L872,112.2969 L7,112.2969 L7,98.5 A12.5,12.5 0 0 1 19.5,86 " fill="#F1F1F1" style="stroke:#F1F1F1;stroke-width:1.0;"/><rect fill="none" height="201.2969" rx="12.5" ry="12.5" style="stroke:#181818;stroke-width:0.5;" width="865" x="7" y="86"/><line style="stroke:#181818;stroke-width:0.5;" x1="7" x2="872" y1="112.2969" y2="112.2969"/><text fill="#000000" font-family="sans-serif" font-size="14" lengthAdjust="spacing" textLength="46" x="416.5" y="103.9951">Active</text><ellipse cx="28" cy="149.2969" fill="#222222" rx="10" ry="10" style="stroke:#222222;stroke-width:1.0;"/><g id="Active.NumLockOff"><rect fill="#F1F1F1" height="50" rx="12.5" ry="12.5" style="stroke:#181818;stroke-width:0.5;" width="109" x="56.5" y="124.2969"/><line style="stroke:#181818;stroke-width:0.5;" x1="56.5" x2="165.5" y1="150.5938" y2="150.5938"/><text fill="#000000" font-family="sans-serif" font-size="14" lengthAdjust="spacing" textLength="89" x="66.5" y="142.292">NumLockOff</text></g><g id="Active.NumLockOn"><rect fill="#F1F1F1" height="50" rx="12.5" ry="12.5" style="stroke:#181818;stroke-width:0.5;" width="106" x="58" y="227.2969"/><line style="stroke:#181818;stroke-width:0.5;" x1="58" x2="164" y1="253.5938" y2="253.5938"/><text fill="#000000" font-family="sans-serif" font-size="14" lengthAdjust="spacing" textLength="86" x="68" y="245.292">NumLockOn</text></g><!--link *start*Active to NumLockOff--><g id="link_*start*Active_NumLockOff"><path d="M38.0508,149.2969 C44.1299,149.2969 44.209,149.2969 50.2881,149.2969 " fill="none" id="*start*Active-to-NumLockOff" style="stroke:#181818;stroke-width:1.0;"/><polygon fill="#181818" points="56.2881,149.2969,47.2881,145.2969,51.2881,149.2969,47.2881,153.2969,56.2881,149.2969" style="stroke:#181818;stroke-width:1.0;"/></g><!--link NumLockOff to NumLockOn--><g id="link_NumLockOff_NumLockOn"><path d="M56.224,172.2049 C48.5426,177.6267 41.6829,184.2544 37,192.2969 C27.8228,208.0579 35.3043,218.2708 52.6277,228.1511 " fill="none" id="NumLockOff-to-NumLockOn" style="stroke:#181818;stroke-width:1.0;"/><polygon fill="#181818" points="57.8396,231.1237,52.0035,223.1902,53.4964,228.6465,48.04,230.1394,57.8396,231.1237" style="stroke:#181818;stroke-width:1.0;"/><text fill="#000000" font-family="sans-serif" font-size="13" lengthAdjust="spacing" textLength="126" x="38" y="205.3638">EvNumLockPressed</text></g><!--link NumLockOn to NumLockOff--><g id="link_NumLockOn_NumLockOff"><path d="M152.543,227.0317 C163.769,217.2051 171.284,205.1448 165,192.2969 C161.713,185.5753 161.1776,183.6926 155.5976,178.5311 " fill="none" id="NumLockOn-to-NumLockOff" style="stroke:#181818;stroke-width:1.0;"/><polygon fill="#181818" points="151.193,174.4569,155.0837,183.5047,154.8635,177.8521,160.5161,177.6319,151.193,174.4569" style="stroke:#181818;stroke-width:1.0;"/><text fill="#000000" font-family="sans-serif" font-size="13" lengthAdjust="spacing" textLength="126" x="168" y="205.3638">EvNumLockPressed</text></g><line style="stroke:#181818;stroke-width:1.5;stroke-dasharray:8.0,10.0;" x1="289" x2="289" y1="117.2969" y2="290.2969"/><ellipse cx="305" cy="149.2969" fill="#222222" rx="10" ry="10" style="stroke:#222222;stroke-width:1.0;"/><g id="Active.CONC11.CapsLockOff"><rect fill="#F1F1F1" height="50" rx="12.5" ry="12.5" style="stroke:#181818;stroke-width:0.5;" width="112" x="333" y="124.2969"/><line style="stroke:#181818;stroke-width:0.5;" x1="333" x2="445" y1="150.5938" y2="150.5938"/><text fill="#000000" font-family="sans-serif" font-size="14" lengthAdjust="spacing" textLength="92" x="343" y="142.292">CapsLockOff</text></g><g id="Active.CONC11.CapsLockOn"><rect fill="#F1F1F1" height="50" rx="12.5" ry="12.5" style="stroke:#181818;stroke-width:0.5;" width="109" x="333.5" y="227.2969"/><line style="stroke:#181818;stroke-width:0.5;" x1="333.5" x2="442.5" y1="253.5938" y2="253.5938"/><text fill="#000000" font-family="sans-serif" font-size="14" lengthAdjust="spacing" textLength="89" x="343.5" y="245.292">CapsLockOn</text></g><!--link *start*CONC11 to CapsLockOff--><g id="link_*start*CONC11_CapsLockOff"><path d="M315.1719,149.2969 C321.0358,149.2969 320.8998,149.2969 326.7637,149.2969 " fill="none" id="*start*CONC11-to-CapsLockOff" style="stroke:#181818;stroke-width:1.0;"/><polygon fill="#181818" points="332.7637,149.2969,323.7637,145.2969,327.7637,149.2969,323.7637,153.2969,332.7637,149.2969" style="stroke:#181818;stroke-width:1.0;"/></g><!--link CapsLockOff to CapsLockOn--><g id="link_CapsLockOff_CapsLockOn"><path d="M332.7709,171.9699 C324.8787,177.4192 317.8255,184.1168 313,192.2969 C303.8249,207.8502 310.8567,217.8669 327.9329,227.6738 " fill="none" id="CapsLockOff-to-CapsLockOn" style="stroke:#181818;stroke-width:1.0;"/><polygon fill="#181818" points="333.1359,230.6619,327.3235,222.7111,328.8001,228.1718,323.3393,229.6484,333.1359,230.6619" style="stroke:#181818;stroke-width:1.0;"/><text fill="#000000" font-family="sans-serif" font-size="13" lengthAdjust="spacing" textLength="128" x="314" y="205.3638">EvCapsLockPressed</text></g><!--link CapsLockOn to CapsLockOff--><g id="link_CapsLockOn_CapsLockOff"><path d="M428.925,227.2443 C434.609,222.0704 439.644,216.0815 443,209.2969 C449.402,196.3525 446.2261,188.1155 434.8121,178.2332 " fill="none" id="CapsLockOn-to-CapsLockOff" style="stroke:#181818;stroke-width:1.0;"/><polygon fill="#181818" points="430.276,174.3059,434.4619,183.2209,434.0561,177.5787,439.6983,177.1729,430.276,174.3059" style="stroke:#181818;stroke-width:1.0;"/><text fill="#000000" font-family="sans-serif" font-size="13" lengthAdjust="spacing" textLength="128" x="447" y="205.3638">EvCapsLockPressed</text></g><line style="stroke:#181818;stroke-width:1.5;stroke-dasharray:8.0,10.0;" x1="570" x2="570" y1="117.2969" y2="290.2969"/><ellipse cx="586" cy="149.2969" fill="#222222" rx="10" ry="10" style="stroke:#222222;stroke-width:1.0;"/><g id="Active.CONC19.ScrollLockOff"><rect fill="#F1F1F1" height="50" rx="12.5" ry="12.5" style="stroke:#181818;stroke-width:0.5;" width="117" x="614.5" y="124.2969"/><line style="stroke:#181818;stroke-width:0.5;" x1="614.5" x2="731.5" y1="150.5938" y2="150.5938"/><text fill="#000000" font-family="sans-serif" font-size="14" lengthAdjust="spacing" textLength="97" x="624.5" y="142.292">ScrollLockOff</text></g><g id="Active.CONC19.ScrollLockOn"><rect fill="#F1F1F1" height="50" rx="12.5" ry="12.5" style="stroke:#181818;stroke-width:0.5;" width="114" x="616" y="227.2969"/><line style="stroke:#181818;stroke-width:0.5;" x1="616" x2="730" y1="253.5938" y2="253.5938"/><text fill="#000000" font-family="sans-serif" font-size="14" lengthAdjust="spacing" textLength="94" x="626" y="245.292">ScrollLockOn</text></g><!--link *start*CONC19 to ScrollLockOff--><g id="link_*start*CONC19_ScrollLockOff"><path d="M596.1953,149.2969 C602.2957,149.2969 602.3961,149.2969 608.4964,149.2969 " fill="none" id="*start*CONC19-to-ScrollLockOff" style="stroke:#181818;stroke-width:1.0;"/><polygon fill="#181818" points="614.4964,149.2969,605.4964,145.2969,609.4964,149.2969,605.4964,153.2969,614.4964,149.2969" style="stroke:#181818;stroke-width:1.0;"/></g><!--link ScrollLockOff to ScrollLockOn--><g id="link_ScrollLockOff_ScrollLockOn"><path d="M614.1732,173.8329 C607.3389,178.9259 601.2894,185.0257 597,192.2969 C588.0886,207.4032 594.1109,216.9843 610.405,226.6397 " fill="none" id="ScrollLockOff-to-ScrollLockOn" style="stroke:#181818;stroke-width:1.0;"/><polygon fill="#181818" points="615.5668,229.6985,609.8633,221.6692,611.2653,227.1495,605.7849,228.5516,615.5668,229.6985" style="stroke:#181818;stroke-width:1.0;"/><text fill="#000000" font-family="sans-serif" font-size="13" lengthAdjust="spacing" textLength="130" x="598" y="205.3638">EvScrollLockPressed</text></g><!--link ScrollLockOn to ScrollLockOff--><g id="link_ScrollLockOn_ScrollLockOff"><path d="M716.07,227.2059 C727.71,217.3993 735.505,205.3073 729,192.2969 C725.63,185.5576 725.0592,183.6424 719.3832,178.5121 " fill="none" id="ScrollLockOn-to-ScrollLockOff" style="stroke:#181818;stroke-width:1.0;"/><polygon fill="#181818" points="714.932,174.4889,718.9266,183.4913,718.6413,177.8416,724.291,177.5563,714.932,174.4889" style="stroke:#181818;stroke-width:1.0;"/><text fill="#000000" font-family="sans-serif" font-size="13" lengthAdjust="spacing" textLength="130" x="732" y="205.3638">EvScrollLockPressed</text></g><!--link *start* to Active--><g id="link_*start*_Active"><path d="M439.5,26.059 C439.5,38.159 439.5,54.947 439.5,79.589 " fill="none" id="*start*-to-Active" style="stroke:#181818;stroke-width:1.0;"/><polygon fill="#181818" points="439.5,85.589,443.5,76.589,439.5,80.589,435.5,76.589,439.5,85.589" style="stroke:#181818;stroke-width:1.0;"/></g><!--SRC=[YzQALT3LjLDmJ2x9B4lbuYekIIn9XV8KghaK5A912kmK_4fpVVAJi_tJqe1Y20vOBuoRfs2bu5e6vGKKfHONfwOWgSv3KGpKYrLrJGt2KkV4WcA4hKWyi4bmFiHU61TX5982NLJJS6X0jZiukIW_9mTXEmeVR1wI2CG52064aIYATD7DnQ6j5W00]--></g></svg>